<?xml version="1.0" encoding="utf-8"?>
<svg version="1.1" xmlns:xlink="http://www.w3.org/1999/xlink" width="21px" height="21px" xmlns="http://www.w3.org/2000/svg">
  <g transform="matrix(1 0 0 1 -1779 -101 )">
    <path d="M 1.6153846153846154 16.125  L 1.6153846153846154 19.5  L 5.25 19.5  L 5.25 16.125  L 1.6153846153846154 16.125  Z M 6.0576923076923075 16.125  L 6.0576923076923075 19.5  L 10.096153846153847 19.5  L 10.096153846153847 16.125  L 6.0576923076923075 16.125  Z M 1.6153846153846154 11.625  L 1.6153846153846154 15.375000000000002  L 5.25 15.375000000000002  L 5.25 11.625  L 1.6153846153846154 11.625  Z M 6.0576923076923075 11.625  L 6.0576923076923075 15.375000000000002  L 10.096153846153847 15.375000000000002  L 10.096153846153847 11.625  L 6.0576923076923075 11.625  Z M 1.6153846153846154 7.499999999999999  L 1.6153846153846154 10.874999999999998  L 5.25 10.874999999999998  L 5.25 7.499999999999999  L 1.6153846153846154 7.499999999999999  Z M 10.903846153846155 16.125  L 10.903846153846155 19.5  L 14.942307692307693 19.5  L 14.942307692307693 16.125  L 10.903846153846155 16.125  Z M 6.0576923076923075 7.499999999999999  L 6.0576923076923075 10.874999999999998  L 10.096153846153847 10.874999999999998  L 10.096153846153847 7.499999999999999  L 6.0576923076923075 7.499999999999999  Z M 15.75 16.125  L 15.75 19.5  L 19.384615384615387 19.5  L 19.384615384615387 16.125  L 15.75 16.125  Z M 10.903846153846155 11.625  L 10.903846153846155 15.375000000000002  L 14.942307692307693 15.375000000000002  L 14.942307692307693 11.625  L 10.903846153846155 11.625  Z M 6.341646634615384 5.513671875000001  C 6.421574519230769 5.439453124999999  6.461538461538462 5.351562499999998  6.461538461538462 5.25  L 6.461538461538462 1.8750000000000004  C 6.461538461538462 1.7734375  6.421574519230769 1.6855468749999991  6.341646634615384 1.6113281249999996  C 6.261718750000001 1.5371093749999978  6.167067307692308 1.4999999999999993  6.0576923076923075 1.4999999999999993  L 5.25 1.4999999999999993  C 5.140625 1.4999999999999993  5.045973557692308 1.5371093749999978  4.966045673076923 1.6113281249999996  C 4.886117788461537 1.6855468749999991  4.846153846153847 1.7734375  4.846153846153847 1.8750000000000004  L 4.846153846153847 5.25  C 4.846153846153847 5.351562499999998  4.886117788461537 5.439453124999999  4.966045673076923 5.513671875000001  C 5.045973557692308 5.587890625  5.140625 5.625000000000001  5.25 5.625000000000001  L 6.0576923076923075 5.625000000000001  C 6.167067307692308 5.625000000000001  6.261718750000001 5.587890625  6.341646634615384 5.513671875000001  Z M 15.75 11.625  L 15.75 15.375000000000002  L 19.384615384615387 15.375000000000002  L 19.384615384615387 11.625  L 15.75 11.625  Z M 10.903846153846155 7.499999999999999  L 10.903846153846155 10.874999999999998  L 14.942307692307693 10.874999999999998  L 14.942307692307693 7.499999999999999  L 10.903846153846155 7.499999999999999  Z M 15.75 7.499999999999999  L 15.75 10.874999999999998  L 19.384615384615387 10.874999999999998  L 19.384615384615387 7.499999999999999  L 15.75 7.499999999999999  Z M 16.033954326923077 5.513671875000001  C 16.113882211538463 5.439453124999999  16.153846153846153 5.351562499999998  16.153846153846153 5.25  L 16.153846153846153 1.8750000000000004  C 16.153846153846153 1.7734375  16.113882211538463 1.6855468749999991  16.033954326923077 1.6113281249999996  C 15.954026442307693 1.5371093749999978  15.859375 1.4999999999999993  15.75 1.4999999999999993  L 14.942307692307693 1.4999999999999993  C 14.832932692307695 1.4999999999999993  14.738281250000002 1.5371093749999978  14.658353365384615 1.6113281249999996  C 14.578425480769232 1.6855468749999991  14.538461538461538 1.7734375  14.538461538461538 1.8750000000000004  L 14.538461538461538 5.25  C 14.538461538461538 5.351562499999998  14.578425480769232 5.439453124999999  14.658353365384615 5.513671875000001  C 14.738281250000002 5.587890625  14.832932692307695 5.625000000000001  14.942307692307693 5.625000000000001  L 15.75 5.625000000000001  C 15.859375 5.625000000000001  15.954026442307693 5.587890625  16.033954326923077 5.513671875000001  Z M 20.520432692307693 3.4453125  C 20.840144230769234 3.7421875  21 4.093749999999999  21 4.5  L 21 19.5  C 21 19.90625  20.840144230769234 20.2578125  20.520432692307693 20.5546875  C 20.200721153846157 20.8515625  19.822115384615387 21  19.384615384615387 21  L 1.6153846153846154 21  C 1.1778846153846156 21  0.7992788461538463 20.8515625  0.47956730769230765 20.5546875  C 0.15985576923076922 20.2578125  0 19.90625  0 19.5  L 0 4.5  C 0 4.093749999999999  0.15985576923076922 3.7421875  0.47956730769230765 3.4453125  C 0.7992788461538463 3.1484374999999973  1.1778846153846156 3.000000000000001  1.6153846153846154 3.000000000000001  L 3.230769230769231 3.000000000000001  L 3.230769230769231 1.8750000000000004  C 3.230769230769231 1.3593750000000009  3.428485576923077 0.9179687499999988  3.823918269230769 0.5507812500000007  C 4.219350961538463 0.18359375000000022  4.694711538461538 0  5.25 0  L 6.0576923076923075 0  C 6.612980769230769 0  7.088341346153848 0.18359375000000022  7.483774038461538 0.5507812500000007  C 7.879206730769232 0.9179687499999988  8.076923076923077 1.3593750000000009  8.076923076923077 1.8750000000000004  L 8.076923076923077 3.000000000000001  L 12.923076923076923 3.000000000000001  L 12.923076923076923 1.8750000000000004  C 12.923076923076923 1.3593750000000009  13.12079326923077 0.9179687499999988  13.516225961538462 0.5507812500000007  C 13.911658653846157 0.18359375000000022  14.387019230769232 0  14.942307692307693 0  L 15.75 0  C 16.305288461538463 0  16.78064903846154 0.18359375000000022  17.17608173076923 0.5507812500000007  C 17.571514423076927 0.9179687499999988  17.76923076923077 1.3593750000000009  17.76923076923077 1.8750000000000004  L 17.76923076923077 3.000000000000001  L 19.384615384615387 3.000000000000001  C 19.822115384615387 3.000000000000001  20.200721153846157 3.1484374999999973  20.520432692307693 3.4453125  Z " fill-rule="nonzero" fill="#757575" stroke="none" transform="matrix(1 0 0 1 1779 101 )" />
  </g>
</svg>