<?xml version="1.0" encoding="utf-8"?>
<svg version="1.1" xmlns:xlink="http://www.w3.org/1999/xlink" width="42px" height="45px" xmlns="http://www.w3.org/2000/svg">
  <g transform="matrix(1 0 0 1 -1812 -109 )">
    <path d="M 21 42.99107142857143  C 21.269230769230774 42.99107142857143  21.403846153846157 42.85714285714286  21.403846153846153 42.589285714285715  C 21.403846153846157 42.32142857142857  21.269230769230774 42.1875  21 42.1875  C 20.00721153846154 42.1875  19.153245192307697 41.831752232142854  18.438100961538463 41.12025669642857  C 17.722956730769234 40.408761160714285  17.365384615384613 39.559151785714285  17.365384615384613 38.57142857142858  C 17.365384615384613 38.30357142857143  17.230769230769234 38.169642857142854  16.961538461538463 38.169642857142854  C 16.692307692307693 38.169642857142854  16.557692307692307 38.30357142857143  16.557692307692307 38.57142857142858  C 16.557692307692307 39.793526785714285  16.990985576923077 40.83565848214286  17.857572115384613 41.697823660714285  C 18.724158653846157 42.559988839285715  19.771634615384617 42.99107142857143  21 42.99107142857143  Z M 11.307692307692307 14.464285714285714  C 11.307692307692307 23.370535714285715  9.069711538461538 30.334821428571427  4.59375 35  L 37.40625 35  C 32.93028846153847 30.334821428571427  30.69230769230769 23.370535714285715  30.69230769230769 14.464285714285714  C 30.69230769230769 13.61049107142857  30.490384615384613 12.73158482142857  30.086538461538463 11.827566964285714  C 29.68269230769231 10.923549107142856  29.102163461538463 10.061383928571423  28.344951923076923 9.24107142857143  C 27.587740384615387 8.420758928571427  26.56550480769231 7.746930803571431  25.27824519230769 7.219587053571431  C 23.990985576923077 6.692243303571431  22.564903846153847 6.428571428571431  21 6.428571428571431  C 19.435096153846153 6.428571428571431  18.009014423076923 6.692243303571431  16.721754807692307 7.219587053571431  C 15.434495192307693 7.746930803571431  14.412259615384615 8.420758928571427  13.655048076923077 9.24107142857143  C 12.897836538461538 10.061383928571423  12.317307692307693 10.923549107142856  11.913461538461538 11.827566964285714  C 11.509615384615385 12.73158482142857  11.307692307692307 13.61049107142857  11.307692307692307 14.464285714285714  Z M 39.703125 33.14732142857142  C 40.393028846153854 33.917410714285715  41.15865384615385 34.654017857142854  42 35.357142857142854  C 42.00000000000001 36.22767857142857  41.68028846153847 36.98102678571429  41.04086538461539 37.6171875  C 40.401442307692314 38.25334821428571  39.644230769230774 38.57142857142858  38.769230769230774 38  L 27.461538461538463 38  C 27.461538461538463 40.345982142857146  26.830528846153847 41.861049107142854  25.568509615384613 43.116629464285715  C 24.306490384615387 44.37220982142857  22.78365384615385 45  21 45  C 19.216346153846157 45  17.693509615384613 44.37220982142857  16.431490384615387 43.116629464285715  C 15.169471153846155 41.861049107142854  14.538461538461538 40.345982142857146  14.538461538461538 38  L 3.230769230769231 38  C 2.3557692307692313 38.57142857142858  1.5985576923076925 38.25334821428571  0.9591346153846153 37.6171875  C 0.31971153846153855 36.98102678571429  0 36.22767857142857  0 35.357142857142854  C 0.8413461538461541 34.654017857142854  1.6069711538461542 33.917410714285715  2.296875 33.14732142857142  C 2.9867788461538467 32.37723214285714  3.701923076923077 31.376953125  4.4423076923076925 30.146484375  C 5.182692307692308 28.916015625  5.809495192307693 27.58928571428571  6.322716346153847 26.166294642857142  C 6.835937500000001 24.74330357142857  7.2566105769230775 23.018973214285715  7.5847355769230775 20.99330357142857  C 7.9128605769230775 18.967633928571427  8.076923076923077 16.791294642857135  8.076923076923077 14.464285714285714  C 8.076923076923077 11.919642857142854  9.061298076923077 9.554966517857144  11.030048076923077 7.370256696428569  C 12.998798076923077 5.185546875  15.58173076923077 3.8588169642857113  18.778846153846153 3.3900669642857126  C 18.64423076923077 3.071986607142853  18.576923076923077 2.7455357142857144  18.576923076923077 2.4107142857142874  C 18.576923076923077 1.7410714285714275  18.8125 1.1718749999999982  19.283653846153847 0.703125  C 19.754807692307693 0.23437500000000167  20.326923076923077 0  21 0  C 21.673076923076927 0  22.245192307692314 0.23437500000000167  22.716346153846153 0.703125  C 23.1875 1.1718749999999982  23.423076923076923 1.7410714285714275  23.423076923076923 2.4107142857142874  C 23.423076923076923 2.7455357142857144  23.355769230769234 3.071986607142853  23.221153846153847 3.3900669642857126  C 26.418269230769234 3.8588169642857113  29.001201923076923 5.185546875  30.969951923076923 7.370256696428569  C 32.93870192307693 9.554966517857144  33.92307692307693 11.919642857142854  33.92307692307693 14.464285714285714  C 33.92307692307693 16.791294642857135  34.08713942307693 18.967633928571427  34.41526442307693 20.99330357142857  C 34.74338942307693 23.018973214285715  35.1640625 24.74330357142857  35.67728365384615 26.166294642857142  C 36.190504807692314 27.58928571428571  36.81730769230769 28.916015625  37.55769230769231 30.146484375  C 38.29807692307693 31.376953125  39.01322115384616 32.37723214285714  39.703125 33.14732142857142  Z " fill-rule="nonzero" fill="#fbfaf9" stroke="none" transform="matrix(1 0 0 1 1812 109 )" />
  </g>
</svg>