<?xml version="1.0" encoding="utf-8"?>
<svg version="1.1" xmlns:xlink="http://www.w3.org/1999/xlink" width="20px" height="17px" xmlns="http://www.w3.org/2000/svg">
  <g transform="matrix(1 0 0 1 -383 -171 )">
    <path d="M 2.7566964285714284 14.266276041666668  C 2.8236607142857144 14.332682291666668  2.8571428571428568 14.417534722222223  2.8571428571428568 14.520833333333332  L 2.8571428571428568 16.645833333333332  C 2.8571428571428568 16.749131944444443  2.8236607142857144 16.833984375  2.7566964285714284 16.900390625  C 2.6897321428571432 16.966796875  2.604166666666667 17  2.5 17  L 0.3571428571428571 17  C 0.25297619047619047 17  0.1674107142857143 16.966796875  0.10044642857142858 16.900390625  C 0.033482142857142856 16.833984375  0 16.749131944444443  0 16.645833333333332  L 0 14.520833333333332  C 0 14.417534722222223  0.033482142857142856 14.332682291666668  0.10044642857142858 14.266276041666668  C 0.1674107142857143 14.199869791666668  0.25297619047619047 14.166666666666668  0.3571428571428571 14.166666666666668  L 2.5 14.166666666666668  C 2.604166666666667 14.166666666666668  2.6897321428571432 14.199869791666668  2.7566964285714284 14.266276041666668  Z M 7.0424107142857135 12.849609375  C 7.109375 12.916015625  7.142857142857143 13.000868055555557  7.142857142857143 13.104166666666668  L 7.142857142857143 16.645833333333332  C 7.142857142857143 16.749131944444443  7.109375 16.833984375  7.0424107142857135 16.900390625  C 6.975446428571429 16.966796875  6.8898809523809526 17  6.7857142857142865 17  L 4.642857142857143 17  C 4.538690476190477 17  4.453125000000001 16.966796875  4.386160714285714 16.900390625  C 4.319196428571429 16.833984375  4.285714285714286 16.749131944444443  4.285714285714286 16.645833333333332  L 4.285714285714286 13.104166666666668  C 4.285714285714286 13.000868055555557  4.319196428571429 12.916015625  4.386160714285714 12.849609375  C 4.453125000000001 12.783203125  4.538690476190477 12.75  4.642857142857143 12.75  L 6.7857142857142865 12.75  C 6.8898809523809526 12.75  6.975446428571429 12.783203125  7.0424107142857135 12.849609375  Z M 11.328125 10.016276041666666  C 11.395089285714286 10.082682291666666  11.428571428571427 10.167534722222221  11.428571428571427 10.270833333333334  L 11.428571428571427 16.645833333333332  C 11.428571428571427 16.749131944444443  11.395089285714286 16.833984375  11.328125 16.900390625  C 11.261160714285714 16.966796875  11.175595238095239 17  11.071428571428573 17  L 8.928571428571429 17  C 8.824404761904763 17  8.738839285714286 16.966796875  8.671875 16.900390625  C 8.604910714285714 16.833984375  8.571428571428571 16.749131944444443  8.571428571428571 16.645833333333332  L 8.571428571428571 10.270833333333334  C 8.571428571428571 10.167534722222221  8.604910714285714 10.082682291666666  8.671875 10.016276041666666  C 8.738839285714286 9.949869791666666  8.824404761904763 9.916666666666666  8.928571428571429 9.916666666666666  L 11.071428571428573 9.916666666666666  C 11.175595238095239 9.916666666666666  11.261160714285714 9.949869791666666  11.328125 10.016276041666666  Z M 15.613839285714286 5.766276041666667  C 15.680803571428573 5.832682291666667  15.714285714285714 5.917534722222222  15.714285714285714 6.020833333333333  L 15.714285714285714 16.645833333333332  C 15.714285714285714 16.749131944444443  15.680803571428573 16.833984375  15.613839285714286 16.900390625  C 15.546875 16.966796875  15.461309523809526 17  15.357142857142858 17  L 13.214285714285714 17  C 13.11011904761905 17  13.024553571428573 16.966796875  12.957589285714286 16.900390625  C 12.890625 16.833984375  12.857142857142858 16.749131944444443  12.857142857142858 16.645833333333332  L 12.857142857142858 6.020833333333333  C 12.857142857142858 5.917534722222222  12.890625 5.832682291666667  12.957589285714286 5.766276041666667  C 13.024553571428573 5.699869791666667  13.11011904761905 5.666666666666667  13.214285714285714 5.666666666666667  L 15.357142857142858 5.666666666666667  C 15.461309523809526 5.666666666666667  15.546875 5.699869791666667  15.613839285714286 5.766276041666667  Z M 19.899553571428573 0.099609375  C 19.966517857142858 0.166015625  20 0.25086805555555325  20 0.3541666666666673  L 20 16.645833333333332  C 20 16.749131944444443  19.966517857142858 16.833984375  19.899553571428573 16.900390625  C 19.832589285714285 16.966796875  19.74702380952381 17  19.642857142857142 17  L 17.5 17  C 17.395833333333336 17  17.31026785714286 16.966796875  17.243303571428573 16.900390625  C 17.176339285714285 16.833984375  17.142857142857142 16.749131944444443  17 16.645833333333332  L 17 0.3541666666666673  C 17.142857142857142 0.25086805555555325  17.176339285714285 0.166015625  17.243303571428573 0.099609375  C 17.31026785714286 0.033203125  17.395833333333336 0  17.5 0  L 19.642857142857142 0  C 19.74702380952381 0  19.832589285714285 0.033203125  19.899553571428573 0.099609375  Z " fill-rule="nonzero" fill="#000000" stroke="none" transform="matrix(1 0 0 1 383 171 )" />
  </g>
</svg>