<?xml version="1.0" encoding="utf-8"?>
<svg version="1.1" xmlns:xlink="http://www.w3.org/1999/xlink" width="25px" height="25px" xmlns="http://www.w3.org/2000/svg">
  <g transform="matrix(1 0 0 1 -380 -122 )">
    <path d="M 5.2407068860450945 21.13511868533171  C 5.4336786512289255 20.94238182187056  5.530164533820841 20.71414079935078  5.530164533820841 20.45039561777237  C 5.530164533820841 20.186650436193954  5.4336786512289255 19.958409413674175  5.2407068860450945 19.765672550213026  C 5.0477351208612635 19.572935686751876  4.819215925248833 19.4765672550213  4.5551492992078 19.4765672550213  C 4.291082673166768 19.4765672550213  4.062563477554337 19.572935686751876  3.8695917123705055 19.765672550213026  C 3.6766199471866754 19.958409413674175  3.5801340645947595 20.186650436193954  3.5801340645947595 20.45039561777237  C 3.5801340645947595 20.71414079935078  3.6766199471866754 20.94238182187056  3.8695917123705055 21.13511868533171  C 4.062563477554337 21.327855548792858  4.291082673166768 21.424223980523433  4.5551492992078 21.424223980523433  C 4.819215925248833 21.424223980523433  5.0477351208612635 21.327855548792858  5.2407068860450945 21.13511868533171  Z M 12.698049969530775 12.317407181984175  C 13.464858825919157 13.083282613106107  14.345927280113752 13.664029214850881  15.341255332114564 14.059646987218505  L 4.951249238269348 24.437005477784542  C 4.575462116595572 24.812335159261515  4.118423725370709 25  3.5801340645947595 25  C 3.0520008125126963 25  2.58988421694089 24.812335159261515  2.1937842778793417 24.437005477784542  L 0.578915295551493 22.79367011564212  C 0.19297176518383094 22.428484479610468  0 21.972002434570907  0 21.424223980523433  C 0 20.88658957192128  0.19297176518383094 20.425035504159055  0.578915295551493 20.039561777236763  L 10.95368677635588 9.67741935483871  C 11.349786715417428 10.67153580848042  11.931241113142393 11.551531750862242  12.698049969530775 12.317407181984175  Z M 24.870505789152954 7.060255629945223  C 24.956835263050987 7.161696084398455  25.000000000000007 7.288496652465004  25 7.4406573341448565  C 25.000000000000007 7.836275106512478  24.883201300020318 8.373909515114628  24.64960390006094 9.05356055995131  C 24.172252691448303 10.41286264962467  23.336888076376194 11.51602759180361  22.143510054844604 12.363055386488131  C 20.95013203331302 13.21008318117265  19.637416209628274 13.633597078514912  18.20536258379037 13.633597078514912  C 16.326426975421494 13.633597078514912  14.719175299614056 12.966626090484883  13.383607556368068 11.632684114424832  C 12.04803981312208 10.298742138364778  11.380255941499087 8.69344694664232  11.380255941499087 6.816798539257457  C 11.380255941499087 4.940150131872589  12.04803981312208 3.334854940150131  13.383607556368068 2.0009129640900793  C 14.719175299614056 0.6669709880300245  16.326426975421494 0  18.20536258379037 0  C 18.794434288035752 0  19.411436116189318 0.0836883749239209  20.056368068251064 0.2510651247717599  C 20.701300020312818 0.4184418746195989  21.247206987609182 0.6542909312233725  21.694088970140157 0.9586122945830805  C 21.85659150924233 1.070196794481637  21.937842778793417 1.2122134307161665  21.937842778793417 1.3846622032866711  C 21.937842778793417 1.5571109758571704  21.85659150924233 1.6991276120916998  21.694088970140157 1.810712111990262  L 17.23034734917733 4.382227632379792  L 17.23034734917733 7.790626902008521  L 20.170627666057282 9.418746195982958  C 20.221409709526714 9.388314059646987  20.622587852935204 9.142320957597889  21.374162096282753 8.680766889835667  C 22.125736339630308 8.219212822073441  22.813833028641074 7.808378981537836  23.438452163315052 7.448265368228848  C 24.06307129798903 7.088151754919861  24.421084704448507 6.908094948265367  24.51249238269348 6.908094948265367  C 24.664838513101767 6.908094948265367  24.78417631525493 6.958815175491987  24.870505789152954 7.060255629945223  Z " fill-rule="nonzero" fill="#000000" stroke="none" transform="matrix(1 0 0 1 380 122 )" />
  </g>
</svg>