<?xml version="1.0" encoding="utf-8"?>
<svg version="1.1" xmlns:xlink="http://www.w3.org/1999/xlink" width="39px" height="49px" xmlns="http://www.w3.org/2000/svg">
  <defs>
    <filter x="618px" y="609px" width="39px" height="49px" filterUnits="userSpaceOnUse" id="filter48">
      <feOffset dx="1" dy="1" in="SourceAlpha" result="shadowOffsetInner" />
      <feGaussianBlur stdDeviation="2.5" in="shadowOffsetInner" result="shadowGaussian" />
      <feComposite in2="shadowGaussian" operator="atop" in="SourceAlpha" result="shadowComposite" />
      <feColorMatrix type="matrix" values="0 0 0 0 0  0 0 0 0 0  0 0 0 0 0  0 0 0 0.6980392156862745 0  " in="shadowComposite" />
    </filter>
    <g id="widget49">
      <path d="M 636.5 651.0313187786306  C 630.9 641.6538884791573  622.5 636.0274302994733  622.5 626.65  C 622.5 621.7657142857142  625.3 613.5  636.5 613.5  C 647.7 613.5  650.5 621.7657142857142  650.5 626.65  C 650.5 636.0274302994733  642.1 641.6538884791573  636.5 651.0313187786306  Z " fill-rule="nonzero" fill="#e25d5d" stroke="none" />
      <path d="M 636.5 652  C 630.7 642.25  622 636.4  622 626.65  C 622 621.58  624.9 613  636.5 613  C 648.1 613  651 621.58  651 626.65  C 651 636.4  642.3 642.25  636.5 652  Z M 636.5 650.0626375572612  C 641.9 641.0577769583145  650 635.6548605989466  650 626.65  C 650 621.9514285714286  647.3 614  636.5 614  C 625.7 614  623 621.9514285714286  623 626.65  C 623 635.6548605989466  631.1 641.0577769583145  636.5 650.0626375572612  Z " fill-rule="nonzero" fill="#ffffff" stroke="none" />
    </g>
  </defs>
  <g transform="matrix(1 0 0 1 -618 -609 )">
    <use xlink:href="#widget49" filter="url(#filter48)" />
    <use xlink:href="#widget49" />
  </g>
</svg>