<?xml version="1.0" encoding="utf-8"?>
<svg version="1.1" xmlns:xlink="http://www.w3.org/1999/xlink" width="24px" height="24px" xmlns="http://www.w3.org/2000/svg">
  <defs>
    <filter x="196px" y="826px" width="24px" height="24px" filterUnits="userSpaceOnUse" id="filter27">
      <feOffset dx="1" dy="1" in="SourceAlpha" result="shadowOffsetInner" />
      <feGaussianBlur stdDeviation="2.5" in="shadowOffsetInner" result="shadowGaussian" />
      <feComposite in2="shadowGaussian" operator="atop" in="SourceAlpha" result="shadowComposite" />
      <feColorMatrix type="matrix" values="0 0 0 0 0  0 0 0 0 0  0 0 0 0 0  0 0 0 0.6980392156862745 0  " in="shadowComposite" />
    </filter>
    <g id="widget28">
      <path d="M 207 830  C 210.92 830  214 833.08  214 837  C 214 840.92  210.92 844  207 844  C 203.08 844  200 840.92  200 837  C 200 833.08  203.08 830  207 830  Z " fill-rule="nonzero" fill="#e25d5d" stroke="none" />
      <path d="M 207 830.5  C 210.64 830.5  213.5 833.36  213.5 837  C 213.5 840.64  210.64 843.5  207 843.5  C 203.36 843.5  200.5 840.64  200.5 837  C 200.5 833.36  203.36 830.5  207 830.5  Z " stroke-width="1" stroke="#ffffff" fill="none" />
    </g>
  </defs>
  <g transform="matrix(1 0 0 1 -196 -826 )">
    <use xlink:href="#widget28" filter="url(#filter27)" />
    <use xlink:href="#widget28" />
  </g>
</svg>