<?xml version="1.0" encoding="utf-8"?>
<svg version="1.1" xmlns:xlink="http://www.w3.org/1999/xlink" width="33px" height="41px" xmlns="http://www.w3.org/2000/svg">
  <defs>
    <filter x="177px" y="552px" width="33px" height="41px" filterUnits="userSpaceOnUse" id="filter11">
      <feOffset dx="1" dy="1" in="SourceAlpha" result="shadowOffsetInner" />
      <feGaussianBlur stdDeviation="2.5" in="shadowOffsetInner" result="shadowGaussian" />
      <feComposite in2="shadowGaussian" operator="atop" in="SourceAlpha" result="shadowComposite" />
      <feColorMatrix type="matrix" values="0 0 0 0 0  0 0 0 0 0  0 0 0 0 0  0 0 0 0.6980392156862745 0  " in="shadowComposite" />
    </filter>
    <g id="widget12">
      <path d="M 192.5 586.0298553813116  C 188.1 578.6529879269609  181.5 574.2268674543506  181.5 566.85  C 181.5 563.0057142857142  183.7 556.5  192.5 556.5  C 201.3 556.5  203.5 563.0057142857142  203.5 566.85  C 203.5 574.2268674543506  196.9 578.6529879269609  192.5 586.0298553813116  Z " fill-rule="nonzero" fill="#50cb5a" stroke="none" />
      <path d="M 192.5 587  C 187.9 579.25  181 574.6  181 566.85  C 181 562.82  183.3 556  192.5 556  C 201.7 556  204 562.82  204 566.85  C 204 574.6  197.1 579.25  192.5 587  Z M 192.5 585.0597107626231  C 196.7 578.0559758539218  203 573.8537349087012  203 566.85  C 203 563.1914285714286  200.9 557  192.5 557  C 184.1 557  182 563.1914285714286  182 566.85  C 182 573.8537349087012  188.3 578.0559758539218  192.5 585.0597107626231  Z " fill-rule="nonzero" fill="#ffffff" stroke="none" />
    </g>
  </defs>
  <g transform="matrix(1 0 0 1 -177 -552 )">
    <use xlink:href="#widget12" filter="url(#filter11)" />
    <use xlink:href="#widget12" />
  </g>
</svg>