<?xml version="1.0" encoding="utf-8"?>
<svg version="1.1" xmlns:xlink="http://www.w3.org/1999/xlink" width="33px" height="33px" xmlns="http://www.w3.org/2000/svg">
  <g transform="matrix(1 0 0 1 -367 -1790 )">
    <path d="M 9.15234375 0.07366071428571586  C 9.23828125 0.024553571428573173  9.330357142857144 0  9.428571428571429 0  C 9.588169642857144 0  9.726283482142858 0.05831473214285854  9.842912946428571 0.17494419642857195  C 9.959542410714286 0.29157366071428537  10.017857142857142 0.42968749999999756  10 0.5892857142857159  L 10 27.696428571428573  C 10.017857142857142 27.941964285714285  9.913504464285715 28.11383928571429  9.704799107142858 28.212053571428573  L 0.8655133928571429 32.926339285714285  C 0.7795758928571429 32.97544642857143  0.6875000000000001 33  0.5892857142857143 33  C 0.4296875 33  0.2915736607142857 32.94168526785714  0.17494419642857142 32.82505580357143  C 0.058314732142857144 32.708426339285715  0 32.5703125  0 32.410714285714285  L 0 5.303571428571428  C 0 5.058035714285711  0.10435267857142856 4.8861607142857135  0.3130580357142857 4.787946428571428  L 9.15234375 0.07366071428571586  Z M 32.134486607142854 0.07366071428571586  C 32.22042410714286 0.024553571428573173  32.31250000000001 0  32.410714285714285 0  C 32.57031250000001 0  32.708426339285715 0.05831473214285854  32.82505580357143 0.17494419642857195  C 32.941685267857146 0.29157366071428537  33 0.42968749999999756  33 0.5892857142857159  L 33 27.696428571428573  C 33 27.941964285714285  32.89564732142858 28.11383928571429  32.686941964285715 28.212053571428573  L 23.84765625 32.926339285714285  C 23.76171875 32.97544642857143  23.66964285714286 33  23.571428571428573 33  C 23.41183035714286 33  23.273716517857146 32.94168526785714  23.157087053571427 32.82505580357143  C 23.040457589285715 32.708426339285715  22.982142857142858 32.5703125  23 32.410714285714285  L 23 5.303571428571428  C 22.982142857142858 5.058035714285711  23.08649553571429 4.8861607142857135  23.295200892857142 4.787946428571428  L 32.134486607142854 0.07366071428571586  Z M 11.371372767857142 0.17494419642857195  C 11.488002232142858 0.05831473214285854  11.626116071428571 0  11.785714285714286 0  C 11.883928571428571 0  11.969866071428571 0.018415178571428048  12.043526785714286 0.055245535714284144  L 21.472098214285715 4.76953125  C 21.693080357142858 4.892299107142855  21.803571428571427 5.070312499999997  21.803571428571427 5.303571428571428  L 21.803571428571427 32.410714285714285  C 21.803571428571427 32.5703125  21.745256696428573 32.708426339285715  21.628627232142858 32.82505580357143  C 21.511997767857142 32.94168526785714  21.37388392857143 33  21.214285714285715 33  C 21.11607142857143 33  21.030133928571427 32.98158482142857  20.956473214285715 32.944754464285715  L 11.527901785714286 28.23046875  C 11.306919642857142 28.107700892857142  11.196428571428571 27.929687500000004  11.196428571428571 27.696428571428573  L 11.196428571428571 0.5892857142857159  C 11.196428571428571 0.42968749999999756  11.25474330357143 0.29157366071428537  11.371372767857142 0.17494419642857195  Z " fill-rule="nonzero" fill="#000000" stroke="none" transform="matrix(1 0 0 1 367 1790 )" />
  </g>
</svg>