<?xml version="1.0" encoding="utf-8"?>
<svg version="1.1" xmlns:xlink="http://www.w3.org/1999/xlink" width="24px" height="24px" xmlns="http://www.w3.org/2000/svg">
  <defs>
    <filter x="24px" y="768px" width="24px" height="24px" filterUnits="userSpaceOnUse" id="filter25">
      <feOffset dx="1" dy="1" in="SourceAlpha" result="shadowOffsetInner" />
      <feGaussianBlur stdDeviation="2.5" in="shadowOffsetInner" result="shadowGaussian" />
      <feComposite in2="shadowGaussian" operator="atop" in="SourceAlpha" result="shadowComposite" />
      <feColorMatrix type="matrix" values="0 0 0 0 0  0 0 0 0 0  0 0 0 0 0  0 0 0 0.6980392156862745 0  " in="shadowComposite" />
    </filter>
    <g id="widget26">
      <path d="M 35 772  C 38.92 772  42 775.08  42 779  C 42 782.92  38.92 786  35 786  C 31.08 786  28 782.92  28 779  C 28 775.08  31.08 772  35 772  Z " fill-rule="nonzero" fill="#50cb5a" stroke="none" />
      <path d="M 35 772.5  C 38.64 772.5  41.5 775.36  41.5 779  C 41.5 782.64  38.64 785.5  35 785.5  C 31.36 785.5  28.5 782.64  28.5 779  C 28.5 775.36  31.36 772.5  35 772.5  Z " stroke-width="1" stroke="#ffffff" fill="none" />
    </g>
  </defs>
  <g transform="matrix(1 0 0 1 -24 -768 )">
    <use xlink:href="#widget26" filter="url(#filter25)" />
    <use xlink:href="#widget26" />
  </g>
</svg>