<?xml version="1.0" encoding="utf-8"?>
<svg version="1.1" xmlns:xlink="http://www.w3.org/1999/xlink" width="26px" height="28px" xmlns="http://www.w3.org/2000/svg">
  <g transform="matrix(1 0 0 1 -376 -145 )">
    <path d="M 9.288352272727273 10.6640625  C 9.399147727272727 10.7734375  9.454545454545455 10.913194444444443  9.454545454545455 11.083333333333334  L 9.454545454545455 21.583333333333336  C 9.454545454545455 21.75347222222222  9.399147727272727 21.893229166666664  9.288352272727273 22.002604166666664  C 9.177556818181818 22.111979166666664  9.03598484848485 22.166666666666664  8.863636363636363 22.166666666666664  L 7.6818181818181825 22.166666666666664  C 7.509469696969698 22.166666666666664  7.367897727272728 22.111979166666664  7.2571022727272725 22.002604166666664  C 7.1463068181818175 21.893229166666664  7.09090909090909 21.75347222222222  7 21.583333333333336  L 7 11.083333333333334  C 7.09090909090909 10.913194444444443  7.1463068181818175 10.7734375  7.2571022727272725 10.6640625  C 7.367897727272728 10.5546875  7.509469696969698 10.5  7.6818181818181825 10.5  L 8.863636363636363 10.5  C 9.03598484848485 10.5  9.177556818181818 10.5546875  9.288352272727273 10.6640625  Z M 14.015625 10.6640625  C 14.126420454545455 10.7734375  14.18181818181818 10.913194444444443  14 11.083333333333334  L 14 21.583333333333336  C 14.18181818181818 21.75347222222222  14.126420454545455 21.893229166666664  14.015625 22.002604166666664  C 13.904829545454545 22.111979166666664  13.763257575757578 22.166666666666664  13.59090909090909 22.166666666666664  L 12.40909090909091 22.166666666666664  C 12.236742424242426 22.166666666666664  12.095170454545455 22.111979166666664  11.984375 22.002604166666664  C 11.873579545454545 21.893229166666664  11.818181818181818 21.75347222222222  12 21.583333333333336  L 12 11.083333333333334  C 11.818181818181818 10.913194444444443  11.873579545454545 10.7734375  11.984375 10.6640625  C 12.095170454545455 10.5546875  12.236742424242426 10.5  12.40909090909091 10.5  L 13.59090909090909 10.5  C 13.763257575757578 10.5  13.904829545454545 10.5546875  14.015625 10.6640625  Z M 18.742897727272727 10.6640625  C 18.85369318181818 10.7734375  18.90909090909091 10.913194444444443  19 11.083333333333334  L 19 21.583333333333336  C 18.90909090909091 21.75347222222222  18.85369318181818 21.893229166666664  18.742897727272727 22.002604166666664  C 18.632102272727273 22.111979166666664  18.490530303030305 22.166666666666664  18.31818181818182 22.166666666666664  L 17.136363636363637 22.166666666666664  C 16.964015151515152 22.166666666666664  16.82244318181818 22.111979166666664  16.711647727272727 22.002604166666664  C 16.600852272727273 21.893229166666664  16.545454545454547 21.75347222222222  16.545454545454547 21.583333333333336  L 16.545454545454547 11.083333333333334  C 16.545454545454547 10.913194444444443  16.600852272727273 10.7734375  16.711647727272727 10.6640625  C 16.82244318181818 10.5546875  16.964015151515152 10.5  17.136363636363637 10.5  L 18.31818181818182 10.5  C 18.490530303030305 10.5  18.632102272727273 10.5546875  18.742897727272727 10.6640625  Z M 21.14346590909091 25.01953125  C 21.229640151515152 24.794704861111114  21.272727272727273 24.548611111111114  21 24.28125  L 21 7  L 5 7  L 5 24.28125  C 4.7272727272727275 24.548611111111114  4.7703598484848495 24.794704861111114  4.856534090909091 25.01953125  C 4.942708333333334 25.244357638888886  5.0319602272727275 25.408420138888886  5.1242897727272725 25.51171875  C 5.216619318181818 25.615017361111114  5.28125 25.666666666666664  5.318181818181818 25.666666666666664  L 20.68181818181818 25.666666666666664  C 20.71875 25.666666666666664  20.78338068181818 25.615017361111114  20.875710227272727 25.51171875  C 20.968039772727273 25.408420138888886  21.05729166666667 25.244357638888886  21.14346590909091 25.01953125  Z M 9.76846590909091 2.5338541666666656  L 8.863636363636363 4.666666666666666  L 17.136363636363637 4.666666666666666  L 16.25 2.5338541666666656  C 16.16382575757576 2.4244791666666656  16.059185606060606 2.3576388888888875  15.936079545454545 2.3333333333333344  L 10.082386363636363 2.3333333333333344  C 9.959280303030303 2.3576388888888875  9.854640151515152 2.4244791666666656  9.76846590909091 2.5338541666666656  Z M 25.83380681818182 4.830729166666666  C 25.944602272727273 4.940104166666666  26 5.079861111111109  26 5.25  L 26 6.416666666666666  C 26 6.586805555555554  25.944602272727273 6.7265625  25.83380681818182 6.8359375  C 25.723011363636363 6.9453125  25.581439393939398 7  25.40909090909091 7  L 23.636363636363637 7  L 23.636363636363637 24.28125  C 23.636363636363637 25.289930555555554  23.347064393939398 26.161892361111114  22.76846590909091 26.897135416666664  C 22.189867424242426 27.63237847222222  21.49431818181818 28  20.68181818181818 28  L 5.318181818181818 28  C 4.505681818181818 28  3.8101325757575766 27.64453125  3.231534090909091 26.93359375  C 2.6529356060606064 26.22265625  2.3636363636363638 25.36284722222222  2.3636363636363638 24.354166666666664  L 2.3636363636363638 7  L 0.5909090909090909 7  C 0.4185606060606061 7  0.2769886363636364 6.9453125  0.16619318181818182 6.8359375  C 0.055397727272727265 6.7265625  0 6.586805555555554  0 6.416666666666666  L 0 5.25  C 0 5.079861111111109  0.055397727272727265 4.940104166666666  0.16619318181818182 4.830729166666666  C 0.2769886363636364 4.721354166666666  0.4185606060606061 4.666666666666666  0.5909090909090909 4.666666666666666  L 6.296875 4.666666666666666  L 7.589488636363637 1.6223958333333344  C 7.774147727272728 1.1727430555555531  8.106534090909092 0.7899305555555531  8.586647727272727 0.47395833333333437  C 9.066761363636365 0.15798611111110938  9.553030303030303 0  10.045454545454545 0  L 15.954545454545455 0  C 16.4469696969697 0  16.933238636363637 0.15798611111110938  17.413352272727273 0.47395833333333437  C 17.89346590909091 0.7899305555555531  18.225852272727273 1.1727430555555531  18.410511363636363 1.6223958333333344  L 19.703125 4.666666666666666  L 25.40909090909091 4.666666666666666  C 25.581439393939398 4.666666666666666  25.723011363636363 4.721354166666666  25.83380681818182 4.830729166666666  Z " fill-rule="nonzero" fill="#000000" stroke="none" transform="matrix(1 0 0 1 376 145 )" />
  </g>
</svg>