<?xml version="1.0" encoding="utf-8"?>
<svg version="1.1" xmlns:xlink="http://www.w3.org/1999/xlink" width="12px" height="11px" xmlns="http://www.w3.org/2000/svg">
  <g transform="matrix(1 0 0 1 -395 -233 )">
    <path d="M 6.791759465478842 9.244891826923077  C 6.834075723830735 9.20302483974359  6.8552338530066805 9.151241987179485  6.8552338530066805 9.08954326923077  L 6.8552338530066805 7.833533653846154  C 6.8552338530066805 7.771834935897435  6.834075723830735 7.720052083333333  6.791759465478842 7.678185096153846  C 6.74944320712695 7.6363181089743595  6.6993318485523385 7.615384615384615  6.641425389755012 7.615384615384615  L 5.358574610244989 7.615384615384615  C 5.3006681514476615 7.615384615384615  5.250556792873052 7.6363181089743595  5.208240534521158 7.678185096153846  C 5.165924276169265 7.720052083333333  5.144766146993319 7.771834935897435  5.144766146993319 7.833533653846154  L 5.144766146993319 9.08954326923077  C 5.144766146993319 9.151241987179485  5.165924276169265 9.20302483974359  5.208240534521158 9.244891826923077  C 5.250556792873052 9.286758814102564  5.3006681514476615 9.307692307692308  5.358574610244989 9.307692307692308  L 6.641425389755012 9.307692307692308  C 6.6993318485523385 9.307692307692308  6.74944320712695 9.286758814102564  6.791759465478842 9.244891826923077  Z M 6.771714922048997 6.72626201923077  C 6.8140311804008915 6.697616185897435  6.8374164810690425 6.661258012820513  6.841870824053451 6.6171875  L 6.962138084632517 3.5829326923076925  C 6.962138084632517 3.530048076923077  6.939866369710468 3.4881810897435885  6.89532293986637 3.4573317307692304  C 6.837416481069043 3.408854166666666  6.783964365256126 3.384615384615385  6.734966592427617 3.384615384615385  L 5.265033407572383 3.384615384615385  C 5.216035634743876 3.384615384615385  5.162583518930958 3.408854166666666  5.10467706013363 3.4573317307692304  C 5.060133630289533 3.4881810897435885  5.037861915367483 3.534455128205127  5.037861915367483 3.596153846153846  L 5.151447661469933 6.6171875  C 5.151447661469933 6.661258012820513  5.173719376391983 6.697616185897435  5.21826280623608 6.72626201923077  C 5.262806236080179 6.754907852564101  5.316258351893096 6.76923076923077  5.3786191536748325 6.76923076923077  L 6.614699331848552 6.76923076923077  C 6.67706013363029 6.76923076923077  6.729398663697104 6.754907852564101  6.771714922048997 6.72626201923077  Z M 6.434298440979956 0.1189903846153848  C 6.56792873051225 0.1983173076923076  6.67260579064588 0.3062900641025633  6.748329621380846 0.4429086538461544  L 11.879732739420934 9.750600961538462  C 12.03563474387528 10.028245192307692  12.031180400890868 10.305889423076923  11.866369710467705 10.583533653846155  C 11.79064587973274 10.71133814102564  11.687082405345212 10.812700320512821  11.555679287305122 10.887620192307692  C 11.424276169265035 10.962540064102564  11.282850779510024 11  11.131403118040089 11  L 0.868596881959911 11  C 0.7171492204899778 11  0.5757238307349667 10.962540064102564  0.4443207126948775 10.887620192307692  C 0.3129175946547884 10.812700320512821  0.20935412026726058 10.71133814102564  0.133630289532294 10.583533653846155  C -0.031180400890868605 10.305889423076923  -0.0356347438752784 10.028245192307692  0.12026726057906459 9.750600961538462  L 5.251670378619154 0.4429086538461544  C 5.327394209354122 0.3062900641025633  5.432071269487752 0.1983173076923076  5.565701559020044 0.1189903846153848  C 5.699331848552339 0.03966346153846201  5.844097995545657 0  6 0  C 6.155902004454344 0  6.3006681514476615 0.03966346153846201  6.434298440979956 0.1189903846153848  Z " fill-rule="nonzero" fill="#ea0505" stroke="none" transform="matrix(1 0 0 1 395 233 )" />
  </g>
</svg>